<svg xmlns="http://www.w3.org/2000/svg" viewBox="0 0 240.94 155.91"><defs><style>.cls-1{fill:#fff;}.cls-2,.cls-3,.cls-4,.cls-5{fill:none;stroke:#fff;stroke-miterlimit:10;}.cls-3{stroke-dasharray:3.19 3.19;}.cls-4{stroke-dasharray:3.38 3.38;}.cls-5{stroke-dasharray:3.06 3.06;}</style></defs><title>Logo_cores_final</title><g id="Logo_branco"><path class="cls-1" d="M86.13,116.54a5.85,5.85,0,0,0-4.15-1.8A5.63,5.63,0,0,0,82,126a6,6,0,0,0,4.11-1.81v1.88a7,7,0,0,1-4.06,1.33,7,7,0,1,1,0-14.07,6.58,6.58,0,0,1,4.06,1.34Z"/><path class="cls-1" d="M96.43,127.17H95V126h0A3.58,3.58,0,0,1,92,127.4,4.18,4.18,0,0,1,88,123c0-2.42,1.53-4.49,4.07-4.49A3.68,3.68,0,0,1,95,119.9h0v-1.21h1.45Zm-7-4.33c0,1.66,1,3.23,2.77,3.23s2.84-1.5,2.84-3.21a2.84,2.84,0,0,0-2.86-3.07A2.87,2.87,0,0,0,89.45,122.84Z"/><path class="cls-1" d="M102.52,120.66a1.36,1.36,0,0,0-1.15-.87,1,1,0,0,0-1.05.94c0,.78,1,1.06,2,1.48a2.57,2.57,0,0,1,2,2.43,2.77,2.77,0,0,1-2.86,2.76,3,3,0,0,1-3-2.14l1.28-.54c.36.79.78,1.35,1.73,1.35a1.29,1.29,0,0,0,1.37-1.3c0-1.89-3.82-1.25-3.82-3.91a2.41,2.41,0,0,1,2.52-2.4,2.55,2.55,0,0,1,2.26,1.57Z"/><path class="cls-1" d="M114,127.17h-1.45V126h0a3.58,3.58,0,0,1-2.92,1.4,4.18,4.18,0,0,1-4.06-4.45c0-2.42,1.53-4.49,4.07-4.49a3.67,3.67,0,0,1,2.91,1.44h0v-1.21H114Zm-7-4.33c0,1.66,1,3.23,2.78,3.23s2.83-1.5,2.83-3.21a2.84,2.84,0,0,0-2.85-3.07A2.87,2.87,0,0,0,107.05,122.84Z"/><path class="cls-1" d="M128.55,126h0a3.61,3.61,0,0,1-2.92,1.4,4.18,4.18,0,0,1-4.06-4.45c0-2.42,1.53-4.49,4.08-4.49a3.68,3.68,0,0,1,2.9,1.44h0v-7.61H130v14.88h-1.44ZM123,122.84c0,1.66,1,3.23,2.78,3.23s2.83-1.5,2.83-3.21a2.84,2.84,0,0,0-2.85-3.07A2.87,2.87,0,0,0,123,122.84Z"/><path class="cls-1" d="M133.38,123.24a2.75,2.75,0,0,0,2.78,2.83,2.91,2.91,0,0,0,2.58-1.75l1.22.7a4.26,4.26,0,0,1-3.91,2.38A4.1,4.1,0,0,1,131.9,123c0-2.51,1.46-4.58,4.11-4.58s4.17,2.25,4,4.78Zm5.14-1.23a2.59,2.59,0,0,0-2.49-2.22,2.68,2.68,0,0,0-2.58,2.22Z"/><path class="cls-1" d="M153.87,121.22h0a3.27,3.27,0,0,0-2.63-1.43,3,3,0,0,0-3,3.14,3,3,0,0,0,2.93,3.14,3.31,3.31,0,0,0,2.76-1.46h0v1.93a4.63,4.63,0,0,1-2.69.86,4.38,4.38,0,0,1-4.5-4.47,4.46,4.46,0,0,1,4.52-4.47,4.59,4.59,0,0,1,2.62.84Z"/><path class="cls-1" d="M157.6,112.29v7.39l0,0a2.83,2.83,0,0,1,2.41-1.26c2.35,0,2.89,1.69,2.89,3.68v5H161.5v-4.78c0-1.37-.11-2.6-1.79-2.6-2,0-2.11,1.84-2.11,3.36v4h-1.44V112.29Z"/><path class="cls-1" d="M173.42,127.17H172V126h0a3.58,3.58,0,0,1-2.92,1.4A4.18,4.18,0,0,1,165,123c0-2.42,1.53-4.49,4.07-4.49a3.68,3.68,0,0,1,2.91,1.44h0v-1.21h1.45Zm-7-4.33c0,1.66,1,3.23,2.77,3.23s2.84-1.5,2.84-3.21a2.84,2.84,0,0,0-2.85-3.07A2.87,2.87,0,0,0,166.44,122.84Zm5.64-8.41-2.76,2.78-.9-.5,2.15-3Z"/><path class="cls-1" d="M78.05,31c-1.84,7.19-4,19.21-4,24.78a9.18,9.18,0,0,0,.66,3.6c-3,0-3.6-1.32-3.6-4.91,0-7,2.1-15,4.38-23.64-4.21,5.39-10,19.25-11.75,24.6a1.49,1.49,0,0,1-.66.18c-1.58,0-1.93-2-1.93-5.36,0-4.82.7-14,.7-18.63,0-1.14,0-1.85-.08-2.46C52.44,51,49.89,59.39,46.69,59.39c.7-1.58,6.8-14.87,13.9-30.83a4.85,4.85,0,0,0,.44-1.8c0-.66-.26-1.14-1.49-1.14-3.73,0-5.44,4.43-5.44,8A12,12,0,0,0,54.19,35c-1.67,0-2.32-2.15-2.32-3.6,0-3.86,4.69-7.37,8.55-7.37,2.85,0,4.43,1.89,4.43,9.83,0,5.48-.75,12.37-.92,17.28,2.32-9,10.52-21.84,12.5-24.74.78-1.14,1.22-1.8,2.19-1.8a4.05,4.05,0,0,1,1.4.31A43.36,43.36,0,0,0,78.05,31Z"/><path class="cls-1" d="M81.55,51a7.29,7.29,0,0,0-.17,1.58c0,1.79.75,3.68,3.46,3.68,3.73,0,7.64-3.55,9.83-7.76l.52.39c-2.36,5.26-6.92,8.64-11.27,8.64-3.55,0-5.35-2.24-5.35-5.09,0-5.22,6-12.63,11.14-12.63a2.41,2.41,0,0,1,2.72,2.68C92.43,46.93,86.56,50.48,81.55,51Zm.22-.84c3.12-1.09,8.73-4.21,8.73-8,0-.66-.17-1-.92-1C86.77,41.14,83,46,81.77,50.13Z"/><path class="cls-1" d="M95.24,44.48a3,3,0,0,1,2-.93,1.05,1.05,0,0,1,1.18,1.14A27.07,27.07,0,0,1,97,50.48c2.32-3.55,5.79-7.72,9.12-7.72,2.28,0,3.24,2,3.24,4,0,2.72-1.79,4.78-1.79,6.93,0,1.23.57,1.67,1.31,1.67,2.19,0,4.52-3.6,6.14-6.84l.48.57c-1.84,4.29-4.29,7.41-7.58,7.41-2.06,0-3.07-1.19-3.07-2.81,0-1.8,1.27-4,1.27-6.09,0-1.63-.75-2.15-1.76-2.15-3.64,0-7.67,7-10,10.83a2.88,2.88,0,0,1-2.33-1C92.12,54.74,95.19,48.29,95.24,44.48Z"/><path class="cls-1" d="M127.56,42.37a74.28,74.28,0,0,1-7.72.53h-.66a24.76,24.76,0,0,0-2.41,9.56c0,2.54.7,3.51,2.46,3.51,3,0,6.09-2.9,8.33-7.5l.57.44c-2.11,5-6,8.68-10.17,8.68-2.55,0-3.91-1.45-3.91-4.34,0-2.59,1-6.58,2.55-10.57a9,9,0,0,1-1.58-.35v-.79c.44,0,1.09.13,1.93.17,2.45-6.31,5.83-12.32,7.63-12.32a.93.93,0,0,1,.92,1c0,1.54-3.29,6.1-5.83,11.49h1.62c1.93,0,4.08,0,6.27-.26Z"/><path class="cls-1" d="M140.76,47.37c0,1-2.54,4-2.54,6.1,0,.87.44,1.93,1.49,1.93,1.58,0,4.38-2.28,7-6.93l.43.44c-1.84,4.73-5.57,8-8.68,8a3,3,0,0,1-3.16-3.07,8.15,8.15,0,0,1,.13-1.27c-2.54,3.37-4.47,5.08-6.62,5.08-1.84,0-3.24-1.18-3.24-3.64,0-5.22,6.44-13.46,12.14-13.46,2.28,0,4,1.31,4,3.29,0,1.45-.88,1.88-2.15,1.88a6.21,6.21,0,0,0,.22-1.53c0-1.32-.57-2.46-2.15-2.46-4.13,0-9,8.16-9,12.41,0,1.19.4,1.71,1.19,1.71,2.72,0,7.06-6.4,9.21-9.56C139.53,46.36,140.76,46.71,140.76,47.37Z"/><path class="cls-1" d="M72.42,84.56c.09-2.46,2.1-3.07,4.56-3.07s4.91.7,6.71.74c-.66,1.36-1.27,1.41-1.84,1.41-1,0-1.84,0-2.55,0-.83,8-7.63,15.44-15.08,15.44-5.27,0-8.55-3.64-8.55-8,0-5.4,5-10.75,11.35-11.36a9,9,0,0,1-3.33-6.93,9.15,9.15,0,0,1,9.08-9.08c3.16,0,4.78,1.62,4.78,4.65,0,3.29-1.89,6.71-3.33,6.71-.66,0-1.28-.66-1.63-1.4,2.06-1.8,3.6-3.73,3.6-6a2.74,2.74,0,0,0-3-3.07c-4.12,0-6.32,4.25-6.32,8.95,0,2.1.44,4.82,2.55,6.62a11.77,11.77,0,0,0-9.7,11c0,2.89,1.49,6.36,5.62,6.36,6.23,0,12-6.93,12.8-13.9a27.9,27.9,0,0,0-4.69.61Z"/><path class="cls-1" d="M88.66,93.8c0-1,.83-1.93,3.2-1.93a22.77,22.77,0,0,1,5.4.92c2.06-3.64,3.68-9.51,5.48-15C100,76.87,98.4,75,98.4,73.06c0-1.54,1-3.47,2.72-3.47a5.62,5.62,0,0,0-.58,2.72,4.87,4.87,0,0,0,2.5,4.52c2.29-7,5-13.11,9.43-13.11,1.76,0,4.26,1,4.26,4.47A10.34,10.34,0,0,1,106.2,78.28h-.7c-1.8,5.39-3.77,11.27-6.31,15.08,4,1.23,8.37,2.72,11.62,2.72a6.4,6.4,0,0,0,3.11-.7c-1,2.72-2.5,3.73-4.6,3.73-3.2,0-7.46-2.33-11.41-4.08a6.53,6.53,0,0,1-4.86,2.59A4.29,4.29,0,0,1,88.66,93.8Zm7.59.53a14.6,14.6,0,0,0-5-1.32c-1.1,0-1.45.31-1.45.84a3,3,0,0,0,3.07,2.5A4.37,4.37,0,0,0,96.25,94.33Zm9.51-16.89c5.31,0,8.6-7,8.6-10.43,0-1.67-.75-2.2-1.58-2.2C110.06,64.81,108,70.69,105.76,77.44Z"/><path class="cls-1" d="M123.57,82.15C123.57,83.6,119,88.9,119,93c0,2.1.7,2.63,2.15,2.63,2,0,4.25-1.71,6.75-6.71l.4.44c-1.72,5-5.22,7.8-8.64,7.8-2.29,0-3.38-1.62-3.38-3.68,0-3.33,3.33-12.32,6.31-12.32A.92.92,0,0,1,123.57,82.15Zm-.44-6.49c0-1.23,1.8-2.28,3.2-2.28.88,0,1.45.35,1.45,1.36s-1.45,2.37-2.85,2.37C124,77.11,123.13,76.67,123.13,75.66Z"/><path class="cls-1" d="M128.52,85a3,3,0,0,1,2-.92,1.06,1.06,0,0,1,1.19,1.14A27.54,27.54,0,0,1,130.32,91c2.33-3.56,5.79-7.72,9.12-7.72,2.28,0,3.25,2,3.25,3.94,0,2.72-1.8,4.78-1.8,6.93,0,1.23.57,1.67,1.32,1.67,2.19,0,4.51-3.6,6.14-6.84l.48.57c-1.84,4.3-4.3,7.41-7.59,7.41-2.06,0-3.07-1.18-3.07-2.81,0-1.79,1.27-4,1.27-6.09,0-1.63-.74-2.15-1.75-2.15-3.64,0-7.68,7-10,10.83a2.87,2.87,0,0,1-2.32-1C125.41,95.22,128.48,88.77,128.52,85Z"/><path class="cls-1" d="M159.71,87.72c0-1.53-.75-2.1-1.67-2.1-4.34,0-6,12.1-8.47,12.1-1.09,0-1.79-2.24-1.79-4.56,0-8.38,9.29-28.42,13.11-28.42,1.05,0,1.45,1.58,1.45,2.76,0,4.08-4.92,13.6-10.09,16.71a24.92,24.92,0,0,0-1.62,8.64,13.4,13.4,0,0,0,.08,1.49c2.07-6,5-11.36,8.91-11.36,2.41,0,3.33,2,3.33,4,0,2.72-1.88,5.22-1.88,7.37,0,1.18.57,1.67,1.31,1.67,2,0,5.09-3.21,6.84-7l.57.52c-1.84,4.3-5,7.64-8.42,7.64-2,0-3-1.19-3-2.77C158.35,92.5,159.71,89.83,159.71,87.72Zm-6.89-5.22c4-3.24,8-11.62,8-13.86,0-.26,0-.35-.18-.35C159.79,68.29,155,75.35,152.82,82.5Z"/><path class="cls-1" d="M182.42,87.85c0,1-2.54,4-2.54,6.1,0,.88.44,1.93,1.49,1.93,1.58,0,4.39-2.28,7-6.93l.44.44c-1.85,4.73-5.57,8-8.69,8A3,3,0,0,1,177,94.3a7.2,7.2,0,0,1,.14-1.27c-2.55,3.37-4.48,5.08-6.63,5.08-1.84,0-3.24-1.18-3.24-3.64,0-5.21,6.44-13.46,12.15-13.46,2.28,0,4,1.32,4,3.29,0,1.45-.88,1.89-2.15,1.89a6.36,6.36,0,0,0,.22-1.54c0-1.32-.57-2.46-2.15-2.46-4.12,0-9,8.16-9,12.42,0,1.18.4,1.71,1.19,1.71,2.72,0,7.06-6.41,9.21-9.56C181.19,86.84,182.42,87.19,182.42,87.85Z"/><path class="cls-1" d="M189.44,88.6a26.26,26.26,0,0,0,4.34-6.36v-.53c0-2.15.88-3,1.71-3,.48,0,.7.26.7.57a12.58,12.58,0,0,0-.26,1.93c0,2.89,2.28,6.53,2.28,10.57A8.5,8.5,0,0,1,198,94c2-.35,3.81-1.67,5.52-5l.4.44a7.48,7.48,0,0,1-6.14,5.22,5.61,5.61,0,0,1-5.62,3.64c-4.12,0-5.48-3.11-5.48-5.75C186.63,89.08,189,89.12,189.44,88.6Zm5.52,6A8.63,8.63,0,0,1,189.57,91c-.7,0-1,.61-1,1.53,0,2.11,1.32,4.26,3.6,4.26A2.79,2.79,0,0,0,195,94.61ZM194,83.9a33,33,0,0,1-4.25,5.71,7.82,7.82,0,0,0,5.43,4.29,12.1,12.1,0,0,0,.18-2.06C195.36,89.08,194.44,86.32,194,83.9Z"/><path class="cls-1" d="M171.53,27.94a25.31,25.31,0,0,0-24.87,20.62l.14.06c.65-.65,1.32-1.28,2-1.9a13.64,13.64,0,0,0,.31-1.41.57.57,0,0,0,0-.13,14.68,14.68,0,0,0,.21-2.49c0-.44,0-.86,0-1.29h0l.26-.48a9.72,9.72,0,0,1,.23,2.1,9.33,9.33,0,0,1-.27,2.26,1.24,1.24,0,0,1,0,.16,8.35,8.35,0,0,1-.3,1q.4-.39.84-.75l.21-.17c.63-.55,1.27-1.08,1.93-1.6.13-.4.25-.8.35-1.2h0a15.88,15.88,0,0,0,.47-3.8,14.79,14.79,0,0,0-.19-2.41l.1-.12a9.49,9.49,0,0,1,.64,3.46,9.78,9.78,0,0,1-.46,3,.14.14,0,0,0,0,.07c-.05.15-.11.31-.17.46.16-.12.31-.25.47-.36l.12-.09c1.28-1,2.62-1.91,4-2.79h0l.7-.46a15.27,15.27,0,0,0,.54-4.08,16.52,16.52,0,0,0-.3-3.09,9.7,9.7,0,0,1,.27,6.86c1.39-.87,2.83-1.69,4.3-2.44a15.66,15.66,0,0,0,.2-2.48,15.88,15.88,0,0,0-.36-3.33,9.57,9.57,0,0,1,.63,3.45,9.3,9.3,0,0,1-.27,2.25q2.58-1.32,5.28-2.42a8.86,8.86,0,0,0,.14-1.64,9.8,9.8,0,0,0-.42-2.84,5.94,5.94,0,0,1,.84,3,5.79,5.79,0,0,1-.14,1.26c1.25-.5,2.52-1,3.82-1.38a9.63,9.63,0,0,0,.42-2.8,9,9,0,0,0-.18-1.82l.27,0a6,6,0,0,1,.1,4.4,63.59,63.59,0,0,1,8.53-2.09,1.24,1.24,0,0,1,0,.16q-4.07,1.21-8,2.76a7.51,7.51,0,0,1,4.83,4.5,12.17,12.17,0,0,0-5.14-4.38l-.88.34-.42.17c-.94.39-1.87.78-2.8,1.19a9.65,9.65,0,0,1,7.06,6,15.66,15.66,0,0,0-7.26-5.86h0l-.91.41-.21.1q-2.22,1-4.4,2.15a9.69,9.69,0,0,1,6.41,3.72,15.61,15.61,0,0,0-6.62-3.62q-2.13,1.11-4.2,2.31a15.53,15.53,0,0,1,8.43,5.42A25.26,25.26,0,0,0,159,40.57l-1.24.73-.17.11c-1,.58-1.92,1.17-2.86,1.79A15.55,15.55,0,0,1,161.91,48a25.25,25.25,0,0,0-7.49-4.6c-.81.53-1.62,1.07-2.42,1.62l-.42.29h0l-.66.47.38.16,0,0a15.48,15.48,0,0,1,6.17,4.63,25.48,25.48,0,0,0-6.87-4.61l-1.88,1.37-.17.13L147,48.68a25.3,25.3,0,0,0,35-18.51A25.23,25.23,0,0,0,171.53,27.94Zm-8.64,10.52h0v0h.05S162.9,38.46,162.89,38.46Z"/><path class="cls-2" d="M184.15,119.89a8.93,8.93,0,0,0,1.55-.13"/><path class="cls-3" d="M188.72,118.76c15.08-7.58,24.39-51.23,23.9-75.38"/><path class="cls-2" d="M212.57,41.78c0-.53,0-1.05-.08-1.56h-1.57"/><line class="cls-4" x1="207.54" y1="40.2" x2="195.71" y2="40.17"/><line class="cls-2" x1="194.02" y1="40.16" x2="192.46" y2="40.16"/><path class="cls-2" d="M39.74,43.88c0,.52,0,1,0,1.56"/><path class="cls-5" d="M39.83,48.49C41,79,52.93,114.43,66,119.32"/><path class="cls-2" d="M67.5,119.74a8.24,8.24,0,0,0,1.56.15"/></g></svg>