<svg xmlns="http://www.w3.org/2000/svg" viewBox="0 0 240.94 155.91"><defs><style>.cls-1{font-size:12px;fill:#231f20;font-family:MyriadPro-Regular, Myriad Pro;}.cls-2{letter-spacing:-0.01em;}.cls-3{letter-spacing:-0.01em;}.cls-4{letter-spacing:-0.01em;}.cls-5{fill:#124734;}.cls-6{fill:#a12b2a;}.cls-10,.cls-7,.cls-8,.cls-9{fill:none;stroke:#124734;stroke-miterlimit:10;}.cls-8{stroke-dasharray:3.19 3.19;}.cls-9{stroke-dasharray:3.38 3.38;}.cls-10{stroke-dasharray:3.06 3.06;}</style></defs><title>Logo_cores_final</title><g id="Logo_cores"><text class="cls-1" transform="translate(35.07 -14.03)"><tspan class="cls-2">L</tspan><tspan x="5.5" y="0">ogo </tspan><tspan class="cls-3" x="27.92" y="0">c</tspan><tspan x="33.23" y="0">o</tspan><tspan class="cls-4" x="39.82" y="0">r</tspan><tspan x="43.62" y="0">es</tspan></text></g><g id="Logo_preto"><path class="cls-5" d="M80.41,118.8a5.8,5.8,0,0,0-4.14-1.8,5.63,5.63,0,0,0,0,11.25,6,6,0,0,0,4.11-1.8v1.87a7,7,0,0,1-4,1.34,7,7,0,1,1,0-14.07,6.54,6.54,0,0,1,4,1.33Z"/><path class="cls-5" d="M90.71,129.42H89.27v-1.17h0a3.56,3.56,0,0,1-2.92,1.41,4.18,4.18,0,0,1-4.06-4.46c0-2.41,1.54-4.49,4.08-4.49a3.66,3.66,0,0,1,2.9,1.44h0V121h1.44Zm-7-4.33c0,1.66,1,3.23,2.78,3.23s2.83-1.49,2.83-3.21a2.83,2.83,0,0,0-2.85-3.06A2.87,2.87,0,0,0,83.73,125.09Z"/><path class="cls-5" d="M96.81,122.91a1.35,1.35,0,0,0-1.16-.86,1,1,0,0,0-1,.93c0,.78,1,1.07,2,1.48a2.59,2.59,0,0,1,2,2.44,2.78,2.78,0,0,1-2.87,2.76,3,3,0,0,1-3-2.15L94,127c.36.79.77,1.35,1.73,1.35a1.29,1.29,0,0,0,1.37-1.3c0-1.89-3.82-1.24-3.82-3.91a2.41,2.41,0,0,1,2.52-2.4A2.57,2.57,0,0,1,98,122.28Z"/><path class="cls-5" d="M108.31,129.42h-1.44v-1.17h0a3.55,3.55,0,0,1-2.92,1.41,4.18,4.18,0,0,1-4-4.46c0-2.41,1.53-4.49,4.07-4.49a3.65,3.65,0,0,1,2.9,1.44h0V121h1.44Zm-7-4.33c0,1.66,1,3.23,2.78,3.23s2.83-1.49,2.83-3.21a2.83,2.83,0,0,0-2.85-3.06A2.88,2.88,0,0,0,101.33,125.09Z"/><path class="cls-5" d="M122.83,128.25h0a3.63,3.63,0,0,1-2.93,1.41,4.18,4.18,0,0,1-4.05-4.46c0-2.41,1.53-4.49,4.07-4.49a3.68,3.68,0,0,1,2.91,1.44h0v-7.61h1.45v14.88h-1.45Zm-5.54-3.16c0,1.66,1,3.23,2.78,3.23s2.83-1.49,2.83-3.21a2.83,2.83,0,0,0-2.85-3.06A2.88,2.88,0,0,0,117.29,125.09Z"/><path class="cls-5" d="M127.66,125.49a2.75,2.75,0,0,0,2.78,2.83,2.9,2.9,0,0,0,2.58-1.75l1.23.71a4.29,4.29,0,0,1-3.92,2.38,4.1,4.1,0,0,1-4.14-4.37c0-2.5,1.46-4.58,4.11-4.58s4.16,2.26,4,4.78Zm5.15-1.23a2.59,2.59,0,0,0-2.49-2.21,2.67,2.67,0,0,0-2.58,2.21Z"/><path class="cls-5" d="M148.15,123.47h0a3.27,3.27,0,0,0-2.64-1.42,3,3,0,0,0-3,3.13,3,3,0,0,0,2.92,3.14,3.29,3.29,0,0,0,2.76-1.46h0v1.93a4.64,4.64,0,0,1-2.69.87,4.4,4.4,0,0,1-4.51-4.48,4.48,4.48,0,0,1,4.53-4.47,4.54,4.54,0,0,1,2.61.85Z"/><path class="cls-5" d="M151.89,114.54v7.4l0,0a2.85,2.85,0,0,1,2.42-1.26c2.34,0,2.88,1.7,2.88,3.68v5h-1.44v-4.78c0-1.37-.11-2.59-1.78-2.59-2,0-2.11,1.84-2.11,3.35v4h-1.45V114.54Z"/><path class="cls-5" d="M167.7,129.42h-1.44v-1.17h0a3.55,3.55,0,0,1-2.92,1.41,4.18,4.18,0,0,1-4.06-4.46c0-2.41,1.54-4.49,4.08-4.49a3.66,3.66,0,0,1,2.9,1.44h0V121h1.44Zm-7-4.33c0,1.66,1,3.23,2.78,3.23s2.83-1.49,2.83-3.21a2.83,2.83,0,0,0-2.85-3.06A2.88,2.88,0,0,0,160.72,125.09Zm5.65-8.4-2.76,2.78-.9-.51,2.14-3Z"/><path class="cls-6" d="M72.33,33.27c-1.84,7.19-4,19.21-4,24.78A9.31,9.31,0,0,0,69,61.64c-3,0-3.59-1.31-3.59-4.91,0-7,2.1-15,4.38-23.64-4.21,5.39-10,19.25-11.75,24.6a1.4,1.4,0,0,1-.66.18c-1.58,0-1.93-2-1.93-5.35,0-4.83.7-14,.7-18.64,0-1.14,0-1.84-.09-2.46C46.72,53.22,44.18,61.64,41,61.64c.7-1.58,6.79-14.87,13.9-30.83a5.05,5.05,0,0,0,.44-1.8c0-.66-.27-1.14-1.49-1.14-3.73,0-5.44,4.43-5.44,8a9.94,9.94,0,0,0,.09,1.36c-1.67,0-2.33-2.15-2.33-3.59,0-3.86,4.69-7.37,8.55-7.37,2.85,0,4.43,1.88,4.43,9.82,0,5.48-.74,12.37-.92,17.28,2.33-8.94,10.53-21.84,12.5-24.73.79-1.14,1.23-1.8,2.19-1.8a4.05,4.05,0,0,1,1.41.31A43.9,43.9,0,0,0,72.33,33.27Z"/><path class="cls-6" d="M75.84,53.22a7.29,7.29,0,0,0-.17,1.58c0,1.8.74,3.68,3.46,3.68,3.73,0,7.63-3.55,9.83-7.76l.52.4c-2.37,5.26-6.93,8.64-11.27,8.64-3.55,0-5.35-2.24-5.35-5.09C72.86,49.45,78.82,42,84,42a2.4,2.4,0,0,1,2.72,2.67C86.72,49.19,80.84,52.74,75.84,53.22Zm.22-.83c3.11-1.1,8.73-4.21,8.73-8,0-.66-.18-1-.92-1C81.06,43.4,77.24,48.22,76.06,52.39Z"/><path class="cls-6" d="M89.52,46.73a3,3,0,0,1,2-.92A1.06,1.06,0,0,1,92.73,47a27.4,27.4,0,0,1-1.41,5.79c2.33-3.55,5.79-7.72,9.12-7.72,2.29,0,3.25,2,3.25,3.95,0,2.72-1.8,4.78-1.8,6.93,0,1.22.57,1.66,1.32,1.66,2.19,0,4.52-3.59,6.14-6.84l.48.57c-1.84,4.3-4.3,7.41-7.59,7.41-2.06,0-3.07-1.18-3.07-2.8,0-1.8,1.27-4,1.27-6.1,0-1.62-.74-2.15-1.75-2.15-3.64,0-7.67,7-10,10.83a2.84,2.84,0,0,1-2.32-1C86.41,57,89.48,50.55,89.52,46.73Z"/><path class="cls-6" d="M121.85,44.62a71.75,71.75,0,0,1-7.72.53h-.66a24.8,24.8,0,0,0-2.41,9.56c0,2.55.7,3.51,2.45,3.51,3,0,6.1-2.89,8.34-7.5l.57.44c-2.11,5-6.06,8.68-10.18,8.68-2.54,0-3.9-1.44-3.9-4.34,0-2.59,1-6.58,2.54-10.57a8.31,8.31,0,0,1-1.58-.35v-.79c.44.05,1.1.13,1.93.18,2.46-6.32,5.84-12.33,7.63-12.33a.94.94,0,0,1,.93,1c0,1.53-3.29,6.09-5.84,11.49h1.62c1.93,0,4.08-.05,6.28-.26Z"/><path class="cls-6" d="M135.05,49.62c0,1-2.55,4-2.55,6.1,0,.88.44,1.93,1.49,1.93,1.58,0,4.39-2.28,7-6.93l.44.44c-1.84,4.74-5.57,8-8.68,8a3,3,0,0,1-3.16-3.07,7.09,7.09,0,0,1,.13-1.27c-2.54,3.38-4.47,5.09-6.62,5.09-1.84,0-3.25-1.19-3.25-3.64,0-5.22,6.45-13.47,12.15-13.47,2.28,0,4,1.32,4,3.29,0,1.45-.88,1.89-2.15,1.89a6.22,6.22,0,0,0,.22-1.54c0-1.31-.57-2.45-2.15-2.45-4.12,0-9,8.15-9,12.41,0,1.18.39,1.71,1.18,1.71,2.72,0,7.06-6.4,9.21-9.56C133.82,48.62,135.05,49,135.05,49.62Z"/><path class="cls-6" d="M66.7,86.81c.09-2.45,2.11-3.07,4.57-3.07s4.91.71,6.71.75c-.66,1.36-1.28,1.4-1.85,1.4-1,0-1.84,0-2.54,0-.83,8-7.63,15.43-15.09,15.43-5.26,0-8.55-3.64-8.55-8C50,88,55,82.65,61.31,82A9,9,0,0,1,58,75.1,9.15,9.15,0,0,1,67.06,66c3.15,0,4.78,1.62,4.78,4.64,0,3.29-1.89,6.71-3.34,6.71-.66,0-1.27-.65-1.62-1.4,2.06-1.8,3.6-3.73,3.6-6a2.75,2.75,0,0,0-3-3.07c-4.12,0-6.31,4.26-6.31,8.95,0,2.1.44,4.82,2.54,6.62a11.79,11.79,0,0,0-9.69,11c0,2.9,1.49,6.36,5.61,6.36,6.23,0,12-6.93,12.81-13.9a29,29,0,0,0-4.69.61Z"/><path class="cls-6" d="M83,96.06c0-1.06.83-1.93,3.2-1.93a22.2,22.2,0,0,1,5.39.92c2.06-3.64,3.69-9.52,5.48-15-2.72-.87-4.34-2.71-4.34-4.69,0-1.53,1-3.46,2.72-3.46a5.59,5.59,0,0,0-.57,2.72,4.85,4.85,0,0,0,2.5,4.51c2.28-7,5-13.11,9.43-13.11A4.08,4.08,0,0,1,111,70.44a10.32,10.32,0,0,1-10.52,10.09h-.7C98,85.93,96,91.8,93.47,95.62c4,1.23,8.38,2.72,11.62,2.72a6.44,6.44,0,0,0,3.12-.7c-1,2.71-2.5,3.72-4.61,3.72-3.2,0-7.45-2.32-11.4-4.08a6.54,6.54,0,0,1-4.87,2.59A4.29,4.29,0,0,1,83,96.06Zm7.58.52a14.68,14.68,0,0,0-5-1.31c-1.09,0-1.44.3-1.44.83a3,3,0,0,0,3.07,2.5A4.34,4.34,0,0,0,90.53,96.58Zm9.52-16.88c5.31,0,8.6-7,8.6-10.44,0-1.67-.75-2.19-1.58-2.19C104.35,67.07,102.29,72.94,100.05,79.7Z"/><path class="cls-6" d="M117.86,84.4c0,1.45-4.57,6.76-4.57,10.88,0,2.11.71,2.63,2.15,2.63,2,0,4.26-1.71,6.76-6.71l.39.44c-1.71,5-5.22,7.81-8.64,7.81-2.28,0-3.38-1.62-3.38-3.69,0-3.33,3.34-12.32,6.32-12.32A.92.92,0,0,1,117.86,84.4Zm-.44-6.49c0-1.22,1.79-2.28,3.2-2.28.87,0,1.45.35,1.45,1.36s-1.45,2.37-2.86,2.37C118.25,79.36,117.42,78.92,117.42,77.91Z"/><path class="cls-6" d="M122.81,87.21a3,3,0,0,1,2-.92A1,1,0,0,1,126,87.43a27.2,27.2,0,0,1-1.4,5.79c2.32-3.55,5.79-7.72,9.12-7.72,2.28,0,3.25,2,3.25,4,0,2.72-1.8,4.78-1.8,6.93,0,1.23.57,1.66,1.31,1.66,2.2,0,4.52-3.59,6.14-6.84l.49.57c-1.85,4.3-4.3,7.41-7.59,7.41-2.06,0-3.07-1.18-3.07-2.8,0-1.8,1.27-4,1.27-6.1,0-1.62-.74-2.15-1.75-2.15-3.64,0-7.68,7-10,10.84a2.85,2.85,0,0,1-2.32-1C119.7,97.47,122.77,91,122.81,87.21Z"/><path class="cls-6" d="M154,90c0-1.53-.74-2.1-1.66-2.1-4.35,0-6,12.1-8.47,12.1-1.1,0-1.8-2.23-1.8-4.56,0-8.37,9.3-28.42,13.12-28.42,1,0,1.44,1.58,1.44,2.77,0,4.08-4.91,13.59-10.08,16.71a24.9,24.9,0,0,0-1.63,8.64A13.31,13.31,0,0,0,145,96.6c2.06-6,5-11.36,8.9-11.36,2.42,0,3.34,2,3.34,4,0,2.71-1.89,5.21-1.89,7.36,0,1.19.57,1.67,1.32,1.67,2,0,5.08-3.2,6.84-7l.57.53c-1.84,4.3-5,7.63-8.42,7.63-2,0-3-1.18-3-2.76C152.63,94.75,154,92.08,154,90Zm-6.88-5.21c4-3.25,8-11.63,8-13.86,0-.27,0-.35-.17-.35C154.08,70.55,149.3,77.61,147.11,84.76Z"/><path class="cls-6" d="M176.71,90.11c0,1-2.55,4-2.55,6.09,0,.88.44,1.93,1.5,1.93,1.57,0,4.38-2.28,7-6.93l.44.44c-1.84,4.74-5.57,8-8.68,8a3,3,0,0,1-3.16-3.07,7.09,7.09,0,0,1,.13-1.27c-2.54,3.38-4.47,5.09-6.62,5.09-1.84,0-3.25-1.19-3.25-3.64,0-5.22,6.45-13.47,12.15-13.47,2.28,0,4,1.32,4,3.29,0,1.45-.87,1.89-2.15,1.89a5.79,5.79,0,0,0,.22-1.54c0-1.31-.57-2.45-2.15-2.45-4.12,0-9,8.16-9,12.41,0,1.18.39,1.71,1.18,1.71,2.72,0,7.07-6.4,9.21-9.56C175.48,89.1,176.71,89.45,176.71,90.11Z"/><path class="cls-6" d="M183.72,90.85a25.83,25.83,0,0,0,4.35-6.36V84c0-2.15.87-3,1.71-3,.48,0,.7.27.7.57a12.79,12.79,0,0,0-.26,1.93c0,2.9,2.28,6.54,2.28,10.57a8.06,8.06,0,0,1-.27,2.15c2-.35,3.82-1.66,5.53-5l.39.43A7.45,7.45,0,0,1,192,96.9a5.6,5.6,0,0,1-5.61,3.64c-4.12,0-5.48-3.11-5.48-5.74C180.92,91.33,183.24,91.38,183.72,90.85Zm5.53,6a8.57,8.57,0,0,1-5.39-3.64c-.71,0-1,.61-1,1.53,0,2.11,1.32,4.26,3.6,4.26A2.8,2.8,0,0,0,189.25,96.86Zm-1-10.7a32.43,32.43,0,0,1-4.26,5.7,7.82,7.82,0,0,0,5.44,4.3,12.2,12.2,0,0,0,.18-2.06C189.65,91.33,188.72,88.57,188.29,86.16Z"/><path class="cls-5" d="M165.82,30.19A25.3,25.3,0,0,0,141,50.81l.14.06c.65-.65,1.31-1.28,2-1.89a13.78,13.78,0,0,0,.3-1.42.59.59,0,0,0,0-.13,14.6,14.6,0,0,0,.2-2.49c0-.43,0-.86,0-1.28h0l.27-.47a10.24,10.24,0,0,1,.22,2.1,9.24,9.24,0,0,1-.27,2.25.41.41,0,0,1,0,.16,7.33,7.33,0,0,1-.31,1l.85-.75.2-.17c.63-.55,1.28-1.08,1.93-1.6q.19-.59.36-1.2h0a16.09,16.09,0,0,0,.28-6.22l.1-.12a9.55,9.55,0,0,1,.64,3.47,9.76,9.76,0,0,1-.46,3l0,.07c-.05.15-.11.31-.17.47q.24-.19.48-.36a.44.44,0,0,1,.11-.09q1.93-1.47,4-2.79h0c.23-.16.46-.31.7-.45a15.82,15.82,0,0,0,.54-4.09,15.54,15.54,0,0,0-.31-3.08,9.53,9.53,0,0,1,.77,3.78,9.73,9.73,0,0,1-.5,3.07q2.1-1.31,4.31-2.44a15.44,15.44,0,0,0,.19-2.47,16,16,0,0,0-.35-3.34,9.65,9.65,0,0,1,.63,3.45,9.39,9.39,0,0,1-.27,2.26c1.71-.89,3.48-1.7,5.27-2.42a8.93,8.93,0,0,0,.15-1.64,9.59,9.59,0,0,0-.43-2.85,5.94,5.94,0,0,1,.84,3,5.38,5.38,0,0,1-.14,1.27c1.26-.5,2.53-1,3.82-1.39a9.21,9.21,0,0,0,.42-2.8,9.94,9.94,0,0,0-.17-1.82l.26,0a5.85,5.85,0,0,1,.48,2.33,5.68,5.68,0,0,1-.38,2.07,65.54,65.54,0,0,1,8.53-2.09.45.45,0,0,1,0,.16q-4.06,1.22-8,2.76a7.54,7.54,0,0,1,4.84,4.51,12,12,0,0,0-5.14-4.38c-.3.1-.59.22-.88.34l-.42.17c-.94.39-1.87.78-2.8,1.19a9.64,9.64,0,0,1,7.06,6,15.68,15.68,0,0,0-7.27-5.86h0l-.91.42-.22.1c-1.48.68-3,1.39-4.39,2.14a9.64,9.64,0,0,1,6.4,3.72,15.55,15.55,0,0,0-6.61-3.61q-2.13,1.1-4.21,2.31A15.6,15.6,0,0,1,162,48.08a25.44,25.44,0,0,0-8.73-5.25l-1.23.73-.18.1c-1,.58-1.91,1.18-2.86,1.79a15.6,15.6,0,0,1,7.24,4.77,25,25,0,0,0-7.5-4.6c-.81.52-1.61,1.06-2.41,1.61l-.42.29h0l-.67.47c.13,0,.26.1.38.15l0,0a15.53,15.53,0,0,1,6.18,4.64,25.25,25.25,0,0,0-6.87-4.61c-.63.44-1.26.9-1.88,1.36l-.18.14-1.62,1.23a25.3,25.3,0,0,0,35-18.51A25.26,25.26,0,0,0,165.82,30.19Zm-8.64,10.53h0s0,0,.05,0Z"/><path class="cls-7" d="M178.43,122.15A10.05,10.05,0,0,0,180,122"/><path class="cls-8" d="M183,121c15.07-7.57,24.39-51.23,23.89-75.37"/><path class="cls-7" d="M206.86,44c0-.53-.05-1.05-.08-1.56h-1.57"/><line class="cls-9" x1="201.83" y1="42.46" x2="190" y2="42.42"/><line class="cls-7" x1="188.31" y1="42.42" x2="186.74" y2="42.41"/><path class="cls-7" d="M34,46.13c0,.52,0,1,0,1.57"/><path class="cls-10" d="M34.12,50.75c1.2,30.47,13.1,65.93,26.19,70.83"/><path class="cls-7" d="M61.79,122a8.06,8.06,0,0,0,1.55.15"/></g></svg>